<svg class="svg-icon" style="width: 1em; height: 1em;vertical-align: middle;fill: currentColor;overflow: hidden;" viewBox="0 0 1024 1024" version="1.1" xmlns="http://www.w3.org/2000/svg"><path d="M185.2 512.6l-46.4-18.7 68.3-169c3-17 17.9-29.9 35.9-29.9h186v50H253l-67.8 167.6zM247.4 862.4c-65.7 0-119.2-53.5-119.2-119.2S181.7 624 247.4 624s119.2 53.5 119.2 119.2-53.5 119.2-119.2 119.2z m0-188.3c-38.1 0-69.2 31-69.2 69.2s31 69.2 69.2 69.2 69.2-31 69.2-69.2-31-69.2-69.2-69.2zM728.4 862.4c-65.7 0-119.2-53.5-119.2-119.2S662.7 624 728.4 624s119.2 53.5 119.2 119.2-53.5 119.2-119.2 119.2z m0-188.3c-38.1 0-69.2 31-69.2 69.2s31 69.2 69.2 69.2 69.2-31 69.2-69.2-31-69.2-69.2-69.2z"  /><path d="M320.2 323.4c-15.8 0-28.8-13-28.8-28.8v-25.8c0-15.8 13-28.8 28.8-28.8s28.8 13 28.8 28.8v25.8c0.1 15.8-12.9 28.8-28.8 28.8zM323.1 681.2H433V735H323.1zM185.3 681.2h-71.5V573.9c0-13.3 6.2-26.3 17.4-36.3 12.7-11.5 29.9-17.8 48.4-17.8h251.6V466H179.6c-29.4 0-57.3 10.5-78.6 29.7-22.7 20.5-35.2 48.3-35.2 78.2V735h113.7l5.8-53.8z"  /><path d="M911.8 155H430.9c-25.8 0-46.8 22.2-46.8 49.5v501c0 27.3 21 49.5 46.8 49.5h203.8v-55H436.1V210h470.6v490H799.9v55h111.9c25.8 0 46.8-22.2 46.8-49.5v-501c0-27.3-21-49.5-46.8-49.5z"  /><path d="M677.1 274c-80 0-144.7 64.7-144.7 144.7 0 80 64.7 144.7 144.7 144.7s144.7-64.7 144.7-144.7c0-80-64.8-144.7-144.7-144.7z m80.7 167.7h-59.2v59.2h-47.7v-59.2h-59.2V394h59.2v-59.2h47.7V394h59.2v47.7z"  /></svg>