<?xml version="1.0" encoding="utf-8"?>
<!-- Generator: Adobe Illustrator 23.0.3, SVG Export Plug-In . SVG Version: 6.00 Build 0)  -->
<svg version="1.1" id="Capa_1" xmlns="http://www.w3.org/2000/svg" xmlns:xlink="http://www.w3.org/1999/xlink" x="0px" y="0px"
	 viewBox="0 0 1200 1200" enable-background="new 0 0 1200 1200" xml:space="preserve">
<g>
	<g>
		<g>
			<path fill="#070308" d="M1144.099,792.783c0,0,8.075-126.507-18.842-142.657s-129.199-29.609-139.965-43.066
				c-10.767-13.458-91.516-196.49-118.432-201.874c-26.916-5.383-99.591,0-99.591,0v-24.224c0,0,18.841,0,21.533-24.224V313.67
				c0,0-8.075-16.15-34.991-13.458h-43.238c-1.746-22.856-20.803-40.869-44.106-40.869s-42.36,18.013-44.106,40.869H62.059v484.495
				H51.292v67.291c0,0-8.075,13.458,16.15,13.458s91.516,0,91.516,0s0-91.516,88.824-96.899
				c88.824-5.383,99.591,83.441,96.899,91.516h514.104c0,0,0-88.824,88.824-91.516c88.824-2.691,94.207,91.516,94.207,91.516h88.824
				C1130.64,860.073,1162.94,849.307,1144.099,792.783z M416.009,410.569c42.367,0,76.712,34.345,76.712,76.712
				s-34.345,76.712-76.712,76.712s-76.712-34.346-76.712-76.712S373.643,410.569,416.009,410.569z M756.658,717.838H73.914v-71.417
				h682.744V717.838z M836.645,692.31c0,4.632-3.755,8.387-8.388,8.387h-28.931c-4.633,0-8.388-3.755-8.388-8.387v-0.365
				c0-4.632,3.755-8.387,8.388-8.387h28.931c4.633,0,8.388,3.755,8.388,8.387V692.31z M904.014,617.881c-13.441,0-110.22,0-110.22,0
				V443.143c0,0,51.077,0,61.831,0s67.207,126.349,80.649,153.232C949.715,623.258,917.456,617.881,904.014,617.881z
				 M399.86,503.431h-40.375v-32.3h40.375v-43.066h32.3v43.066h43.066v32.3h-43.066v40.374h-32.3V503.431z M251.819,781.85
				c-43.853,0-79.403,35.551-79.403,79.404c0,43.854,35.55,79.404,79.403,79.404s79.403-35.55,79.403-79.404
				C331.223,817.401,295.673,781.85,251.819,781.85z M251.028,906.378c-25.243,0-45.707-20.464-45.707-45.707
				c0-25.243,20.464-45.707,45.707-45.707c25.243,0,45.707,20.464,45.707,45.707C296.734,885.914,276.271,906.378,251.028,906.378z
				 M951.646,779.324c-43.853,0-79.403,35.55-79.403,79.404c0,43.853,35.55,79.403,79.403,79.403
				c43.853,0,79.403-35.55,79.403-79.403C1031.05,814.874,995.5,779.324,951.646,779.324z M950.911,903.521
				c-25.243,0-45.707-20.464-45.707-45.707s20.464-45.707,45.707-45.707c25.243,0,45.707,20.464,45.707,45.707
				S976.155,903.521,950.911,903.521z"/>
		</g>
	</g>
</g>
</svg>
